<?xml version="1.0" standalone="no"?>
<!DOCTYPE svg PUBLIC "-//W3C//DTD SVG 20010904//EN"
 "http://www.w3.org/TR/2001/REC-SVG-20010904/DTD/svg10.dtd">
<svg version="1.0" xmlns="http://www.w3.org/2000/svg"
 width="192.000000pt" height="192.000000pt" viewBox="0 0 192.000000 192.000000"
 preserveAspectRatio="xMidYMid meet">
<metadata>
Created by potrace 1.16, written by Peter Selinger 2001-2019
</metadata>
<g transform="translate(0.000000,192.000000) scale(0.100000,-0.100000)"
fill="#000000" stroke="none">
<path d="M421 1874 c-11 -25 -35 -91 -52 -146 -18 -56 -38 -113 -46 -127 -7
-14 -13 -30 -13 -36 0 -11 -47 -141 -61 -167 -13 -27 -49 -131 -49 -145 0 -7
-16 -45 -35 -86 -19 -41 -35 -80 -35 -88 -1 -8 -9 -32 -20 -54 -11 -22 -19
-48 -20 -57 0 -10 -3 -18 -8 -18 -4 0 -18 -28 -30 -62 -13 -35 -30 -77 -38
-95 -30 -67 -25 -75 152 -266 41 -45 64 -53 64 -24 0 7 6 24 14 38 7 15 21 51
31 80 9 30 23 68 30 84 7 17 16 41 20 55 4 14 11 27 15 30 4 3 22 52 40 110
19 58 37 107 40 110 4 3 19 39 34 80 15 41 34 89 41 105 8 17 31 74 51 127
l36 97 46 -34 c25 -19 49 -35 53 -35 5 0 9 -6 9 -13 0 -6 18 -31 40 -55 23
-24 41 -53 41 -67 1 -14 2 -35 3 -47 2 -27 -11 -62 -36 -100 -39 -58 -131 -40
-191 36 -15 20 -36 36 -46 36 -15 0 -19 -17 -30 -137 -19 -201 -49 -472 -55
-481 -2 -4 -9 -43 -15 -87 -6 -44 -14 -94 -17 -111 -5 -30 4 -42 126 -178 72
-80 137 -146 143 -146 28 -1 213 34 223 42 6 4 16 26 23 48 6 22 16 40 20 40
5 0 21 35 36 78 16 42 38 95 50 117 13 22 35 74 51 115 16 41 34 81 41 88 7 7
13 19 13 25 0 7 11 35 25 62 13 28 25 56 25 63 0 6 4 12 8 12 5 0 14 10 20 23
10 19 11 16 7 -23 -2 -25 -7 -76 -10 -115 -3 -38 -10 -83 -15 -100 -9 -31 -44
-365 -38 -370 2 -2 58 7 125 18 114 20 122 23 128 46 4 14 15 37 25 51 10 15
29 51 40 81 12 30 44 100 71 155 27 56 49 109 49 117 0 9 6 22 14 30 17 17 76
144 76 163 0 8 4 14 9 14 4 0 23 35 41 78 19 42 37 82 41 87 4 6 24 49 44 95
20 47 39 87 43 90 4 3 18 30 31 60 12 30 29 68 37 83 27 56 20 74 -51 120 -22
14 -55 39 -73 56 -18 17 -37 31 -42 31 -5 0 -20 10 -35 23 -14 12 -35 30 -48
39 -40 32 -95 73 -123 93 -15 11 -35 27 -43 36 -9 8 -37 29 -63 45 -27 16 -48
32 -48 36 0 6 -86 68 -94 68 -2 0 -19 15 -39 34 -27 25 -49 36 -84 40 -38 5
-582 25 -695 26 -23 0 -30 -8 -47 -46z m1290 -611 c-5 -16 -25 -60 -44 -98
-19 -39 -44 -93 -55 -120 -11 -28 -29 -66 -40 -85 -11 -19 -28 -57 -38 -85 -9
-27 -23 -57 -30 -65 -7 -8 -27 -51 -44 -95 -33 -82 -50 -111 -50 -84 0 8 4 19
9 25 5 5 23 115 40 244 18 129 36 253 41 275 5 22 12 54 15 72 7 35 13 36 152
41 l52 2 -8 -27z m-767 -585 c-8 -23 -21 -49 -28 -58 -7 -8 -26 -46 -41 -85
-15 -38 -42 -101 -60 -140 -97 -205 -115 -245 -121 -269 -3 -15 -8 -25 -10
-23 -2 2 5 131 16 288 11 156 20 290 20 297 0 7 5 10 10 7 6 -4 39 -9 74 -12
50 -4 72 -1 107 16 24 11 45 20 46 21 1 0 -5 -19 -13 -42z"/>
</g>
</svg>
